<svg width="30" height="30" viewBox="0 0 30 30" fill="none" xmlns="http://www.w3.org/2000/svg">
<path d="M26.7704 0H15.3852C15.1522 0 14.9285 0.0926968 14.7638 0.257491L0.944135 14.0766C-0.314712 15.336 -0.314712 17.3847 0.944135 18.6435L11.3562 29.0553C11.9641 29.6632 12.775 29.9981 13.6393 29.9983H13.6395C14.504 29.9983 15.3149 29.6632 15.923 29.0551L29.7422 15.2357C29.907 15.0709 29.9997 14.8473 29.9997 14.6143L29.9999 3.22906C29.9997 1.44859 28.5509 0 26.7704 0ZM28.2419 14.2504L14.68 27.8123C14.4039 28.0885 14.0343 28.2405 13.6395 28.2405C13.2444 28.2405 12.875 28.0885 12.599 27.8125L2.18696 17.4007C1.61338 16.8271 1.61338 15.8933 2.18696 15.3195L15.7491 1.75781H26.7704C27.5818 1.75781 28.2421 2.4179 28.2421 3.22928L28.2419 14.2504Z" fill="#F03A3A"/>
<path d="M22.253 4.98505C21.5153 4.98505 20.8218 5.27252 20.3002 5.79414C19.7786 6.31554 19.4913 7.00905 19.4913 7.74673C19.4913 8.48442 19.7786 9.17793 20.3002 9.69955C20.8218 10.2212 21.5153 10.5084 22.253 10.5084C22.9905 10.5084 23.684 10.2212 24.2056 9.69955C24.7272 9.17793 25.0145 8.48442 25.0145 7.74673C25.0145 7.00905 24.7272 6.31554 24.2058 5.79414C23.6842 5.27252 22.9907 4.98505 22.253 4.98505ZM22.9628 8.4565C22.7733 8.64624 22.521 8.75061 22.253 8.75061C21.9848 8.75061 21.7328 8.64624 21.5433 8.4565C21.3535 8.26698 21.2491 8.01476 21.2491 7.74673C21.2491 7.47871 21.3535 7.22649 21.5433 7.03697C21.7328 6.84723 21.985 6.74286 22.253 6.74286C22.521 6.74286 22.773 6.84723 22.9628 7.03697C23.1525 7.22649 23.2569 7.47871 23.2569 7.74673C23.2569 8.01476 23.1523 8.26698 22.9628 8.4565Z" fill="#F03A3A"/>
</svg>
