<svg width="30" height="30" viewBox="0 0 30 30" fill="none" xmlns="http://www.w3.org/2000/svg">
<g clip-path="url(#clip0)">
<path d="M16.6556 14.9982L29.6551 1.99875C30.1127 1.54113 30.1127 0.799103 29.6551 0.341486C29.1974 -0.116189 28.4554 -0.116189 27.9978 0.341486L14.9983 13.341L1.99881 0.341486C1.54114 -0.116189 0.799165 -0.116189 0.341548 0.341486C-0.116128 0.799103 -0.116128 1.54113 0.341548 1.99875L13.341 14.9982L0.341548 27.9977C-0.116128 28.4554 -0.116128 29.1973 0.341548 29.655C0.799165 30.1126 1.54114 30.1126 1.99881 29.655L14.9983 16.6555L27.9978 29.655C28.4554 30.1126 29.1974 30.1126 29.6551 29.655C30.1127 29.1973 30.1127 28.4553 29.6551 27.9977L16.6556 14.9982Z" fill="#F03A3A"/>
</g>
<defs>
<clipPath id="clip0">
<rect width="30" height="30" fill="white"/>
</clipPath>
</defs>
</svg>
