<svg width="25" height="30" viewBox="0 0 25 30" fill="none" xmlns="http://www.w3.org/2000/svg">
<path d="M24 3.44268H16.2857V1.17188C16.2857 0.524648 16.0055 0 15.3583 0H9.49888C8.85166 0 8.57143 0.524648 8.57143 1.17188V3.44268H0.857143C0.209916 3.44268 0 3.63849 0 4.28571V8.57143C0 9.21866 0.209916 9.42857 0.857143 9.42857H2.57143V27C2.57143 28.6154 3.78189 30 5.39732 30H19.4598C21.0753 30 22.2857 28.6857 22.2857 27.0703V9.42857H24C24.6472 9.42857 24.8571 9.21866 24.8571 8.57143V4.28571C24.8571 3.63849 24.6472 3.44268 24 3.44268ZM10.2857 1.71429H14.5714V3.42857L10.2857 3.44268V1.71429ZM20.5714 27.0703C20.5714 27.8571 20.1429 28.2857 19.4598 28.2857H5.57143C4.71429 28.2857 4.28571 27.8571 4.28571 27V9.42857H20.5714V27.0703ZM23.1429 7.71429C22.5149 7.71429 2.80108 7.71429 1.71429 7.71429V5.14286H23.1429V7.71429Z" fill="#F03A3A"/>
<path d="M9.42858 12C8.78136 12 8.57144 12.6315 8.57144 13.2787V24.7544C8.57144 25.4015 8.78136 25.7143 9.42858 25.7143C10.0758 25.7143 10.2857 25.4016 10.2857 24.7544V13.2787C10.2857 12.6315 10.0758 12 9.42858 12Z" fill="#F03A3A"/>
<path d="M15.4286 12C14.7814 12 14.5714 12.6315 14.5714 13.2787V24.7543C14.5714 25.4015 14.7814 25.7143 15.4286 25.7143C16.0758 25.7143 16.2857 25.4015 16.2857 24.7543V13.2787C16.2857 12.6315 16.0758 12 15.4286 12Z" fill="#F03A3A"/>
</svg>
