<svg width="32" height="31" viewBox="0 0 32 31" fill="none" xmlns="http://www.w3.org/2000/svg">
<g clip-path="url(#clip0)">
<path d="M18.1131 0.864868C11.3823 0.864868 5.75924 5.81226 4.49549 12.3514C4.49549 12.3514 4.49551 12.3514 2.00524 9.06396C1.37363 8.23017 -0.613567 9.46101 0.187373 10.465C4.46026 15.8212 4.46026 15.8212 4.46026 15.8212C4.66854 16.088 4.97834 16.2328 5.29454 16.2328C5.45584 16.2328 5.61925 16.1955 5.77204 16.1176C5.77204 16.1176 5.77204 16.1176 12.0035 12.8001C12.869 11.9128 12.0035 10.7623 11.0946 10.932C6.51553 13.28 6.51553 13.28 6.51553 13.28C7.38932 7.50159 12.2486 3.06027 18.1131 3.06027C24.5919 3.06027 29.8636 8.47747 29.8636 15.1351C29.8636 21.7928 24.5919 27.21 18.1131 27.21C17.0204 27.21 17.0204 29.4054 18.1131 29.4054C25.7701 29.4054 32 23.0035 32 15.1351C32 7.26675 25.7701 0.864868 18.1131 0.864868Z" fill="#F03A3A"/>
</g>
<defs>
<clipPath id="clip0">
<rect width="32" height="30.2703" fill="white"/>
</clipPath>
</defs>
</svg>
