<svg width="30" height="30" viewBox="0 0 30 30" fill="none" xmlns="http://www.w3.org/2000/svg">
<path d="M29.6568 8.45777L21.5423 0.343184C21.3225 0.123457 21.0244 0 20.7137 0H1.17188C0.524648 0 0 0.524648 0 1.17188V28.8281C0 29.4754 0.524648 30 1.17188 30C1.64713 30 28.5154 30 28.8281 30C29.4754 30 30 29.4754 30 28.8281V9.28635C30 8.97557 29.8765 8.6775 29.6568 8.45777ZM22.4348 27.6562H7.56516V16.1719H22.4348V27.6562ZM27.6562 27.6562H24.7786V15C24.7786 14.3528 24.2539 13.8281 23.6067 13.8281H6.39328C5.74605 13.8281 5.22141 14.3528 5.22141 15V27.6562H2.34375V2.34375H20.2283L27.6562 9.77174V27.6562Z" fill="#F03A3A"/>
</svg>
