<svg width="24" height="115" viewBox="0 0 24 115" fill="none" xmlns="http://www.w3.org/2000/svg">
<path d="M8.20698 0.792893C7.81646 0.402369 7.1833 0.402369 6.79277 0.792893L0.428811 7.15685C0.0382863 7.54738 0.0382863 8.18054 0.428811 8.57107C0.819335 8.96159 1.4525 8.96159 1.84302 8.57107L7.49988 2.91421L13.1567 8.57107C13.5473 8.96159 14.1804 8.96159 14.5709 8.57107C14.9615 8.18054 14.9615 7.54738 14.5709 7.15685L8.20698 0.792893ZM22.9999 113.5C22.9999 112.5 23.0004 112.5 23.0008 112.5C23.0009 112.5 23.0013 112.5 23.0014 112.5C23.0016 112.5 23.0016 112.5 23.0014 112.5C23.001 112.5 22.9997 112.5 22.9974 112.5C22.9929 112.5 22.9848 112.5 22.9732 112.5C22.9499 112.499 22.9127 112.498 22.8624 112.497C22.7618 112.493 22.6092 112.485 22.412 112.47C22.0173 112.439 21.4462 112.377 20.7579 112.251C19.3769 111.998 17.5487 111.495 15.7307 110.498C13.9184 109.504 12.1228 108.024 10.7763 105.809C9.431 103.596 8.49988 100.593 8.49988 96.5H6.49988C6.49988 100.907 7.50626 104.279 9.06724 106.848C10.627 109.414 12.7064 111.121 14.7691 112.252C16.8262 113.38 18.8729 113.939 20.3982 114.218C21.163 114.358 21.8029 114.428 22.2558 114.464C22.4825 114.481 22.6629 114.491 22.7893 114.495C22.8526 114.497 22.9024 114.499 22.9378 114.499C22.9555 114.5 22.9696 114.5 22.98 114.5C22.9852 114.5 22.9895 114.5 22.9928 114.5C22.9945 114.5 22.9959 114.5 22.9971 114.5C22.9977 114.5 22.9984 114.5 22.9987 114.5C22.9993 114.5 22.9999 114.5 22.9999 113.5ZM8.49988 96.5L8.49988 1.5H6.49988L6.49988 96.5H8.49988Z" fill="black"/>
</svg>
