<svg width="91" height="41" viewBox="0 0 91 41" fill="none" xmlns="http://www.w3.org/2000/svg">
<path d="M3.38693 35.5272C3.28594 36.0702 3.64424 36.5922 4.18721 36.6932L13.0355 38.3389C13.5784 38.4399 14.1005 38.0816 14.2015 37.5386C14.3025 36.9956 13.9442 36.4736 13.4012 36.3726L5.53606 34.9097L6.99891 27.0446C7.0999 26.5017 6.7416 25.9796 6.19862 25.8786C5.65565 25.7776 5.13362 26.1359 5.03263 26.6789L3.38693 35.5272ZM88.42 9.64087C88.42 8.64087 88.4198 8.64087 88.4195 8.64087C88.4193 8.64087 88.4189 8.64087 88.4184 8.64087C88.4175 8.64087 88.4161 8.64087 88.4143 8.64087C88.4108 8.64087 88.4056 8.64088 88.3988 8.64089C88.3852 8.64091 88.3652 8.64095 88.3389 8.64104C88.2861 8.64121 88.2082 8.64154 88.106 8.64221C87.9017 8.64354 87.6007 8.6462 87.2121 8.6515C86.4348 8.6621 85.3064 8.68328 83.8987 8.7256C81.0838 8.81022 77.1492 8.97943 72.6684 9.31792C63.7258 9.99346 52.5352 11.3481 43.7289 14.0794L44.3214 15.9897C52.9049 13.3274 63.9118 11.9851 72.8191 11.3122C77.2633 10.9765 81.1669 10.8086 83.9588 10.7247C85.3546 10.6827 86.4719 10.6618 87.2393 10.6513C87.6231 10.6461 87.9193 10.6435 88.119 10.6422C88.2189 10.6415 88.2947 10.6412 88.3452 10.641C88.3705 10.6409 88.3895 10.6409 88.402 10.6409C88.4082 10.6409 88.4129 10.6409 88.4159 10.6409C88.4174 10.6409 88.4185 10.6409 88.4192 10.6409C88.4195 10.6409 88.4198 10.6409 88.4199 10.6409C88.42 10.6409 88.42 10.6409 88.42 9.64087ZM43.7289 14.0794C34.9226 16.8108 24.9296 22.0266 17.1742 26.5302C13.2884 28.7867 9.94865 30.8737 7.57987 32.3969C6.39529 33.1586 5.45303 33.7796 4.80615 34.2107C4.4827 34.4263 4.23306 34.5944 4.06386 34.7089C3.97926 34.7662 3.91477 34.8101 3.87122 34.8397C3.84944 34.8546 3.83289 34.8659 3.82169 34.8736C3.81608 34.8774 3.81182 34.8803 3.80889 34.8823C3.80743 34.8833 3.80631 34.8841 3.80552 34.8846C3.80513 34.8849 3.80479 34.8851 3.8046 34.8853C3.80435 34.8854 3.80418 34.8856 4.37007 35.71C4.93596 36.5345 4.93596 36.5345 4.93605 36.5345C4.93619 36.5344 4.93637 36.5342 4.93665 36.534C4.93722 36.5336 4.93813 36.533 4.93937 36.5322C4.94186 36.5305 4.94569 36.5278 4.95086 36.5243C4.96119 36.5172 4.97685 36.5065 4.99773 36.4923C5.03949 36.4638 5.10214 36.4212 5.18486 36.3652C5.35031 36.2533 5.59601 36.0878 5.91533 35.875C6.55401 35.4493 7.48708 34.8343 8.66158 34.0791C11.011 32.5684 14.3244 30.4978 18.1786 28.2597C25.9033 23.7739 35.7378 18.652 44.3214 15.9897L43.7289 14.0794Z" fill="black"/>
</svg>
